<svg width="86" height="87" viewBox="0 0 86 87" fill="none" xmlns="http://www.w3.org/2000/svg">
<g clip-path="url(#clip0_847_41)">
<path d="M36.7359 4.35954C34.7365 6.89205 33.9368 9.82443 33.9368 15.0227C33.9368 21.5539 33.6702 22.0871 30.6045 22.487C28.7385 22.7536 27.2723 23.2867 27.2723 23.8199C27.2723 24.4863 27.2723 27.2854 27.2723 30.2178C27.2723 34.3498 27.8054 35.5494 29.5382 35.5494C31.1377 35.5494 30.3379 36.8823 26.8724 40.0813L21.9407 44.6131V63.9402C21.9407 81.801 22.2073 83.5338 24.4732 84.8667C27.8054 86.5995 36.2027 86.5995 37.269 84.8667C38.0688 83.5338 36.4693 83.0006 32.3373 83.4005C31.0044 83.5338 28.8718 83.0006 27.2723 82.2009C24.8731 80.868 24.6065 79.5351 24.6065 68.2054V55.5429H30.6045H36.6026V61.2744C36.6026 65.4063 37.4023 67.8056 39.2684 69.5383C40.7346 70.8712 41.9342 72.7373 41.9342 73.8036C41.9342 74.7366 42.6006 75.5364 43.2671 75.5364C44.0668 75.5364 44.6 74.7366 44.6 73.8036C44.6 72.7373 45.7996 70.8712 47.2658 69.5383C49.1318 67.8056 49.9316 65.4063 49.9316 61.2744V55.5429H55.9296H61.9277V68.2054C61.9277 79.5351 61.6611 80.868 59.2619 82.2009C57.6624 83.0006 55.5297 83.5338 54.1968 83.4005C50.0649 83.0006 48.4654 83.5338 49.2651 84.8667C50.3314 86.5995 58.7287 86.5995 62.061 84.8667C64.3269 83.5338 64.5935 81.801 64.5935 63.9402V44.6131L59.6617 40.0813C56.1962 36.8823 55.3965 35.5494 56.9959 35.5494C58.7287 35.5494 59.2619 34.3498 59.2619 30.2178C59.2619 27.2854 59.2619 24.4863 59.2619 23.8199C59.2619 23.2867 57.7957 22.7536 55.9296 22.487C52.8639 22.0871 52.5974 21.5539 52.5974 15.0227C52.5974 6.2256 48.9985 0.894005 43.2671 0.894005C40.7346 0.894005 38.4686 2.09361 36.7359 4.35954ZM48.3321 13.8231L48.732 22.2204H43.2671H37.9355V14.4896C37.9355 10.2243 38.3353 6.2256 38.8685 5.69244C39.4017 5.15929 41.6676 4.89271 43.9335 5.15929C47.9322 5.55916 47.9322 5.69244 48.3321 13.8231ZM56.5961 28.2184V31.5507H43.2671H29.9381V28.2184V24.8862H43.2671H56.5961V28.2184ZM36.6026 43.5468V51.5442H30.6045C23.007 51.5442 22.6071 49.0117 29.2716 43.0136C31.8041 40.6144 33.9368 37.9486 33.9368 37.1489C33.9368 36.2158 34.6032 35.5494 35.2697 35.5494C36.0694 35.5494 36.6026 39.1482 36.6026 43.5468ZM47.2658 43.5468V51.5442H43.2671H39.2684V43.5468V35.5494H43.2671H47.2658V43.5468ZM52.5974 37.1489C52.5974 37.9486 54.73 40.6144 57.2625 43.0136C63.927 49.0117 63.5271 51.5442 55.9296 51.5442H49.9316V43.5468C49.9316 39.1482 50.4647 35.5494 51.2645 35.5494C52.0642 35.5494 52.5974 36.2158 52.5974 37.1489ZM47.2658 59.4083C47.2658 65.0065 46.0662 67.539 43.2671 67.539C40.468 67.539 39.2684 65.0065 39.2684 59.4083C39.2684 55.9428 39.8015 55.5429 43.2671 55.5429C46.7326 55.5429 47.2658 55.9428 47.2658 59.4083Z" fill="black"/>
<path d="M41.9343 84.8671C41.9343 85.5335 42.6008 86.2 43.2672 86.2C44.067 86.2 44.6001 85.5335 44.6001 84.8671C44.6001 84.0673 44.067 83.5342 43.2672 83.5342C42.6008 83.5342 41.9343 84.0673 41.9343 84.8671Z" fill="black"/>
</g>
<defs>
<clipPath id="clip0_847_41">
<rect width="85.3056" height="85.3056" fill="white" transform="translate(0.614502 0.894287)"/>
</clipPath>
</defs>
</svg>
