<svg width="86" height="87" viewBox="0 0 86 87" fill="none" xmlns="http://www.w3.org/2000/svg">
<g clip-path="url(#clip0_847_38)">
<path d="M35.6466 1.56076C26.9827 3.20467 19.6073 7.15894 13.2094 13.5124C4.45671 22.2651 0.102574 33.3726 0.724594 45.3243C1.12446 53.0107 2.90166 58.9199 6.67821 65.3178C9.29958 69.7164 10.9879 71.7157 11.8765 71.4047C13.0317 70.9604 12.6763 69.6719 10.7658 67.095C6.27834 61.1414 3.74583 53.6327 3.39039 45.3243C3.07938 38.4377 3.2571 37.3713 4.27899 39.6373C5.83404 43.2361 11.0768 47.5458 17.9634 50.9225L20.4515 52.1221L19.8739 54.1214C19.1186 56.5207 19.0742 61.2302 19.7406 62.963C20.4071 64.7846 22.2287 66.5174 25.4721 68.4279C28.9376 70.4717 29.8707 71.4047 30.3594 73.4929C30.7148 75.0924 30.315 80.6017 29.7818 81.1349C29.2931 81.6236 22.1843 77.9359 18.9409 75.4923C15.9641 73.2263 14.5868 72.8709 14.5868 74.426C14.5868 75.0035 15.6975 76.1143 17.6968 77.6249C31.6034 88.1104 50.6195 88.999 65.5035 79.8908C70.4352 76.8696 76.5666 70.7383 79.5878 65.8065C88.696 50.9225 87.8074 31.9064 77.3219 17.9999C75.8113 16.0005 74.7005 14.8898 74.1229 14.8898C72.6567 14.8898 72.8789 16.3115 74.7449 18.6663C80.2543 25.6418 83.2311 34.3501 83.2311 43.5027C83.2311 50.3005 81.7205 56.654 78.7881 62.2077C77.233 65.1401 77.1886 64.6514 78.3438 59.0976C79.6767 52.833 79.9877 45.7242 79.0547 42.5696C78.2994 39.9038 76.7443 38.2155 75.056 38.2155C74.5672 38.2155 72.6567 38.9264 70.924 39.8594L67.6806 41.5033L66.3033 40.1704C65.5479 39.4595 64.1262 37.1936 63.1043 35.1498C61.4604 31.862 61.2382 31.0178 61.2382 28.4853C61.2382 26.0417 61.5048 24.9754 62.8821 22.0874C64.4816 18.7107 64.5261 18.533 63.8596 17.2446C63.5042 16.5337 63.1043 15.1119 63.0154 14.09C62.9266 13.0681 62.2157 11.2909 61.2827 9.82475C60.4385 8.44741 59.8165 7.29223 59.9053 7.20337C60.1719 6.89236 64.4372 9.29158 66.792 11.0688C69.3689 13.0237 71.0128 13.2903 71.0128 11.7797C71.0128 11.2021 69.8132 10.0913 67.2363 8.35855C63.0154 5.4706 58.6169 3.47125 53.5518 2.18279C48.9756 0.98317 40.2229 0.672165 35.6466 1.56076ZM42.3555 5.24845C42.3555 6.18148 41.9112 7.82539 41.378 8.89171C40.4006 10.8022 40.2673 10.8911 37.6015 11.3354C34.2692 11.9574 33.4695 12.535 33.4695 14.4899C33.4695 15.3341 33.2918 16.0005 33.0696 16.0005C32.3143 16.0005 28.5822 19.6438 27.6492 21.2877C26.9827 22.5317 26.2274 23.1537 25.0278 23.5092C22.984 24.1312 22.1843 25.242 21.4734 28.5742C21.118 29.996 20.7625 31.24 20.5848 31.3289C20.4071 31.4177 20.0516 30.7513 19.7406 29.7738C18.4077 25.242 13.6093 25.0642 11.5211 29.5072C10.4992 31.6843 10.6325 33.3282 12.0098 35.3276C12.854 36.616 13.2539 37.8156 13.3871 39.6373C13.5649 41.9476 13.7426 42.3919 15.1643 43.5915C18.541 46.5683 24.6724 48.6566 27.6936 47.8568C33.2029 46.4351 35.4688 47.1459 40.8893 52.0777C45.3767 56.1652 46.9762 57.1427 49.5976 57.4981C53.774 57.9869 58.7946 60.9192 58.7946 62.8297C58.7946 64.4736 57.0618 66.6063 52.7965 70.294C50.4417 72.2933 48.4424 74.4704 47.8648 75.5367C46.7096 77.8026 44.7103 79.8908 41.6446 81.9791C39.1121 83.7563 38.7567 83.7563 34.3137 82.6011L32.7142 82.2012L32.7586 76.9585C32.803 72.1156 32.7142 71.6713 31.7367 70.2495C31.1591 69.4498 29.4264 67.9836 27.9602 67.0506C23.8726 64.5181 22.7619 63.5406 22.0954 61.9411C21.2957 60.0306 21.2957 58.52 22.1843 55.3211C22.5841 53.8549 23.0284 52.211 23.1173 51.6778C23.295 50.8336 22.673 50.3893 18.0523 48.0345C12.3208 45.1022 8.18883 41.8588 6.76707 39.0597C4.67886 34.8833 5.38974 29.0629 8.72199 23.1093C10.8991 19.2439 17.2526 12.5794 21.1624 10.0469L23.7838 8.35855L24.9389 9.4693C28.0046 12.3128 29.4708 11.9129 32.4032 7.46996C33.6028 5.64832 34.8024 4.35986 35.38 4.22656C35.9131 4.1377 36.7573 3.95998 37.246 3.87112C37.7348 3.73783 39.0677 3.64897 40.2673 3.60455L42.3555 3.56011V5.24845ZM52.4411 4.44872C54.5737 4.93744 54.9292 5.20403 56.9285 7.91425C59.5943 11.5131 60.5718 13.3791 60.5718 14.8009C60.5718 15.3785 60.7939 16.4892 61.0605 17.2446C61.4604 18.4442 61.3715 19.1106 60.2163 21.8653C58.4391 26.175 58.1726 28.4853 59.0167 31.7732C60.3941 36.9715 65.2369 43.9914 67.4584 43.9914C67.8583 43.9914 69.5466 43.2805 71.235 42.4364C72.9233 41.5922 74.6561 40.8813 75.0115 40.8813C76.2556 40.8813 77.0109 43.6804 77.0109 48.1234C77.0109 52.6553 76.3 57.4981 74.4784 65.0512C73.4121 69.5387 73.1899 70.0718 71.2794 72.1156C65.3258 78.4691 54.0406 83.5341 45.7766 83.5341H44.0438L46.3098 81.4903C47.5982 80.3351 49.1088 78.4691 49.6864 77.3139C50.3529 75.981 51.8191 74.3371 53.8184 72.6932C60.3941 67.3616 62.349 64.1182 60.8828 61.0525C59.7276 58.6533 53.2853 55.0989 49.9974 55.0989C48.3535 55.0989 46.7985 54.0326 42.5776 50.2116C38.6678 46.6572 34.6247 44.4357 32.0477 44.4357C31.1147 44.4357 29.4708 44.7467 28.3156 45.1466C25.9164 45.9463 23.7393 45.5909 20.1849 43.8137C16.675 41.9921 16.0085 41.2367 15.9197 38.9708C15.8308 37.6379 15.3421 36.1273 14.409 34.4834C13.0317 32.1286 13.0317 31.9953 13.6982 30.6624C14.9866 28.1299 16.8971 28.3965 17.608 31.1511C18.3189 33.9947 19.8739 34.8833 21.7844 33.5504C22.7174 32.8839 23.1617 31.862 24.0948 28.1743C24.5391 26.5748 24.8501 26.2638 26.494 25.5974C27.8269 25.1087 28.7155 24.3534 29.6041 22.9316C30.7148 21.1544 31.4701 20.3547 35.1578 17.3334C35.7799 16.8003 36.1353 16.0005 36.1353 15.1563C36.1353 13.8679 36.2242 13.779 37.8236 13.779C41.6446 13.779 44.1771 10.8911 44.8436 5.82604L45.1546 3.42682L47.6427 3.69341C49.02 3.87112 51.1971 4.18213 52.4411 4.44872ZM30.4038 6.09262C30.1372 6.53692 29.5597 7.38109 29.0709 8.00311C28.2268 9.06944 28.1823 9.06944 27.2937 8.22527C26.7606 7.78096 26.494 7.2478 26.7161 7.02565C26.9827 6.75907 29.7818 5.60389 30.7148 5.38174C30.7593 5.33731 30.626 5.69275 30.4038 6.09262Z" fill="black"/>
</g>
<defs>
<clipPath id="clip0_847_38">
<rect width="85.3056" height="85.3056" fill="white" transform="translate(0.591187 0.894287)"/>
</clipPath>
</defs>
</svg>
