<svg width="86" height="86" viewBox="0 0 86 86" fill="none" xmlns="http://www.w3.org/2000/svg">
<path d="M27.4267 2.24386C26.8936 3.57676 27.6044 4.24321 29.4705 4.24321H31.2477V18.0165V31.7454L22.0507 50.3171L12.8537 68.8888V72.2211C12.8092 76.1309 13.7423 78.2636 16.5414 80.7961C20.2735 84.1728 18.8517 83.995 42.3996 84.1283C62.9707 84.2616 63.6372 84.2172 66.0364 83.3286C70.9237 81.507 74.3892 75.9088 73.7228 70.8882C73.5006 69.3776 70.746 63.2462 64.348 50.2727L55.2399 31.7898V18.0609V4.28764L57.1504 4.15435C58.7943 4.02106 59.0164 3.88777 59.0164 2.91031V1.79956L43.3327 1.66628C29.6926 1.57742 27.6489 1.66628 27.4267 2.24386ZM52.5741 18.4164V32.5895L57.4614 42.4086L62.3487 52.2276H43.2438H24.1389L28.9373 42.6307L33.6913 33.0338L33.8246 18.6385L33.9579 4.24321H43.2438H52.5741V18.4164ZM67.236 62.0022C69.2798 66.0897 70.9237 69.9552 71.057 71.0659C71.5901 74.9313 69.4131 78.7523 65.7254 80.4851L63.4594 81.5514H43.1105C23.3392 81.5514 22.7616 81.507 20.8066 80.6184C17.0745 78.8856 14.8086 74.7536 15.4306 70.8882C15.5639 69.8663 17.2967 65.8676 19.2516 61.9578L22.806 54.8934H43.2438H63.6816L67.236 62.0022Z" fill="black"/>
<path d="M39.2006 24.1922C38.312 25.0808 37.9121 25.925 37.9121 26.9024C37.9121 28.8129 40.0003 30.9011 41.9108 30.9011C43.8213 30.9011 45.9095 28.8129 45.9095 26.9024C45.9095 24.9919 43.8213 22.9037 41.9108 22.9037C40.9333 22.9037 40.0892 23.3036 39.2006 24.1922ZM43.0216 26.9024C43.0216 27.7022 42.755 28.0576 41.9997 28.1465C41.4221 28.2353 40.8889 28.0132 40.7556 27.6133C40.3113 26.4581 40.9333 25.4807 41.9997 25.6584C42.755 25.7472 43.0216 26.1027 43.0216 26.9024Z" fill="black"/>
<path d="M44.5322 40.1871C43.6436 41.0757 43.2438 41.9198 43.2438 42.8973C43.2438 44.8078 45.332 46.896 47.2425 46.896C49.153 46.896 51.2412 44.8078 51.2412 42.8973C51.2412 41.9198 50.8413 41.0757 49.9527 40.1871C48.1755 38.4543 46.3094 38.4543 44.5322 40.1871ZM48.3532 42.8973C48.3532 43.697 48.0866 44.0525 47.3313 44.1413C46.265 44.3191 45.643 43.3416 46.0873 42.1864C46.2206 41.7865 46.7537 41.5644 47.3313 41.6533C48.0866 41.7421 48.3532 42.0976 48.3532 42.8973Z" fill="black"/>
<path d="M27.2045 61.5135C26.3159 62.4021 25.916 63.2463 25.916 64.2237C25.916 66.1342 28.0042 68.2224 29.9147 68.2224C31.8252 68.2224 33.9134 66.1342 33.9134 64.2237C33.9134 63.2463 33.5135 62.4021 32.6249 61.5135C31.7363 60.6249 30.8922 60.225 29.9147 60.225C28.9373 60.225 28.0931 60.6249 27.2045 61.5135ZM31.0255 64.2237C31.0255 65.0235 30.7589 65.3789 30.0036 65.4678C29.426 65.5566 28.8928 65.3345 28.7595 64.9346C28.3152 63.7794 28.9373 62.802 30.0036 62.9797C30.7589 63.0685 31.0255 63.424 31.0255 64.2237Z" fill="black"/>
<path d="M48.22 62.2687C43.5993 64.6235 43.4216 71.288 47.9534 73.865C53.596 77.1084 59.9939 71.2436 57.2393 65.3788C55.6842 62.1354 51.419 60.6693 48.22 62.2687ZM53.9515 65.5121C54.8401 66.4007 55.2399 67.2449 55.2399 68.2224C55.2399 70.1328 53.1517 72.2211 51.2412 72.2211C49.3307 72.2211 47.2425 70.1328 47.2425 68.2224C47.2425 66.3119 49.3307 64.2237 51.2412 64.2237C52.2187 64.2237 53.0629 64.6235 53.9515 65.5121Z" fill="black"/>
</svg>
