<svg width="86" height="87" viewBox="0 0 86 87" fill="none" xmlns="http://www.w3.org/2000/svg">
<g clip-path="url(#clip0_847_38)">
<path d="M35.6467 1.56076C26.9828 3.20467 19.6075 7.15894 13.2095 13.5124C4.45684 22.2651 0.102696 33.3726 0.724716 45.3243C1.12459 53.0107 2.90179 58.9199 6.67833 65.3178C9.2997 69.7164 10.988 71.7157 11.8766 71.4047C13.0318 70.9604 12.6764 69.6719 10.7659 67.095C6.27846 61.1414 3.74596 53.6327 3.39052 45.3243C3.07951 38.4377 3.25723 37.3713 4.27911 39.6373C5.83416 43.2361 11.0769 47.5458 17.9636 50.9225L20.4516 52.1221L19.874 54.1214C19.1187 56.5207 19.0743 61.2302 19.7408 62.963C20.4072 64.7846 22.2288 66.5174 25.4722 68.4279C28.9378 70.4717 29.8708 71.4047 30.3595 73.4929C30.715 75.0924 30.3151 80.6017 29.7819 81.1349C29.2932 81.6236 22.1844 77.9359 18.941 75.4923C15.9642 73.2263 14.5869 72.8709 14.5869 74.426C14.5869 75.0035 15.6976 76.1143 17.697 77.6249C31.6036 88.1104 50.6196 88.999 65.5036 79.8908C70.4354 76.8696 76.5667 70.7383 79.5879 65.8065C88.6961 50.9225 87.8075 31.9064 77.322 17.9999C75.8114 16.0005 74.7006 14.8898 74.1231 14.8898C72.6569 14.8898 72.879 16.3115 74.7451 18.6663C80.2544 25.6418 83.2312 34.3501 83.2312 43.5027C83.2312 50.3005 81.7206 56.654 78.7882 62.2077C77.2332 65.1401 77.1887 64.6514 78.3439 59.0976C79.6768 52.833 79.9878 45.7242 79.0548 42.5696C78.2995 39.9038 76.7444 38.2155 75.0561 38.2155C74.5674 38.2155 72.6569 38.9264 70.9241 39.8594L67.6807 41.5033L66.3034 40.1704C65.5481 39.4595 64.1263 37.1936 63.1044 35.1498C61.4605 31.862 61.2384 31.0178 61.2384 28.4853C61.2384 26.0417 61.5049 24.9754 62.8823 22.0874C64.4817 18.7107 64.5262 18.533 63.8597 17.2446C63.5043 16.5337 63.1044 15.1119 63.0156 14.09C62.9267 13.0681 62.2158 11.2909 61.2828 9.82475C60.4386 8.44741 59.8166 7.29223 59.9055 7.20337C60.172 6.89236 64.4373 9.29158 66.7921 11.0688C69.369 13.0237 71.013 13.2903 71.013 11.7797C71.013 11.2021 69.8133 10.0913 67.2364 8.35855C63.0156 5.4706 58.617 3.47125 53.552 2.18279C48.9757 0.98317 40.223 0.672165 35.6467 1.56076ZM42.3556 5.24845C42.3556 6.18148 41.9113 7.82539 41.3782 8.89171C40.4007 10.8022 40.2674 10.8911 37.6016 11.3354C34.2694 11.9574 33.4696 12.535 33.4696 14.4899C33.4696 15.3341 33.2919 16.0005 33.0697 16.0005C32.3144 16.0005 28.5823 19.6438 27.6493 21.2877C26.9828 22.5317 26.2275 23.1537 25.0279 23.5092C22.9841 24.1312 22.1844 25.242 21.4735 28.5742C21.1181 29.996 20.7626 31.24 20.5849 31.3289C20.4072 31.4177 20.0518 30.7513 19.7408 29.7738C18.4079 25.242 13.6094 25.0642 11.5212 29.5072C10.4993 31.6843 10.6326 33.3282 12.0099 35.3276C12.8541 36.616 13.254 37.8156 13.3873 39.6373C13.565 41.9476 13.7427 42.3919 15.1645 43.5915C18.5411 46.5683 24.6725 48.6566 27.6937 47.8568C33.203 46.4351 35.469 47.1459 40.8894 52.0777C45.3769 56.1652 46.9763 57.1427 49.5977 57.4981C53.7741 57.9869 58.7947 60.9192 58.7947 62.8297C58.7947 64.4736 57.0619 66.6063 52.7967 70.294C50.4419 72.2933 48.4425 74.4704 47.8649 75.5367C46.7098 77.8026 44.7104 79.8908 41.6447 81.9791C39.1122 83.7563 38.7568 83.7563 34.3138 82.6011L32.7143 82.2012L32.7587 76.9585C32.8032 72.1156 32.7143 71.6713 31.7368 70.2495C31.1593 69.4498 29.4265 67.9836 27.9603 67.0506C23.8727 64.5181 22.762 63.5406 22.0955 61.9411C21.2958 60.0306 21.2958 58.52 22.1844 55.3211C22.5843 53.8549 23.0286 52.211 23.1174 51.6778C23.2952 50.8336 22.6731 50.3893 18.0524 48.0345C12.3209 45.1022 8.18895 41.8588 6.76719 39.0597C4.67898 34.8833 5.38986 29.0629 8.72211 23.1093C10.8992 19.2439 17.2527 12.5794 21.1625 10.0469L23.7839 8.35855L24.9391 9.4693C28.0047 12.3128 29.4709 11.9129 32.4033 7.46996C33.6029 5.64832 34.8025 4.35986 35.3801 4.22656C35.9133 4.1377 36.7574 3.95998 37.2462 3.87112C37.7349 3.73783 39.0678 3.64897 40.2674 3.60455L42.3556 3.56011V5.24845ZM52.4412 4.44872C54.5739 4.93744 54.9293 5.20403 56.9286 7.91425C59.5944 11.5131 60.5719 13.3791 60.5719 14.8009C60.5719 15.3785 60.7941 16.4892 61.0606 17.2446C61.4605 18.4442 61.3716 19.1106 60.2165 21.8653C58.4393 26.175 58.1727 28.4853 59.0169 31.7732C60.3942 36.9715 65.2371 43.9914 67.4586 43.9914C67.8584 43.9914 69.5468 43.2805 71.2351 42.4364C72.9234 41.5922 74.6562 40.8813 75.0117 40.8813C76.2557 40.8813 77.011 43.6804 77.011 48.1234C77.011 52.6553 76.3001 57.4981 74.4785 65.0512C73.4122 69.5387 73.19 70.0718 71.2795 72.1156C65.3259 78.4691 54.0407 83.5341 45.7767 83.5341H44.044L46.3099 81.4903C47.5984 80.3351 49.109 78.4691 49.6866 77.3139C50.353 75.981 51.8192 74.3371 53.8186 72.6932C60.3942 67.3616 62.3491 64.1182 60.8829 61.0525C59.7277 58.6533 53.2854 55.0989 49.9976 55.0989C48.3537 55.0989 46.7986 54.0326 42.5778 50.2116C38.6679 46.6572 34.6248 44.4357 32.0479 44.4357C31.1148 44.4357 29.4709 44.7467 28.3157 45.1466C25.9165 45.9463 23.7395 45.5909 20.1851 43.8137C16.6751 41.9921 16.0086 41.2367 15.9198 38.9708C15.8309 37.6379 15.3422 36.1273 14.4092 34.4834C13.0318 32.1286 13.0318 31.9953 13.6983 30.6624C14.9867 28.1299 16.8972 28.3965 17.6081 31.1511C18.319 33.9947 19.874 34.8833 21.7845 33.5504C22.7176 32.8839 23.1619 31.862 24.0949 28.1743C24.5392 26.5748 24.8502 26.2638 26.4941 25.5974C27.827 25.1087 28.7156 24.3534 29.6042 22.9316C30.715 21.1544 31.4703 20.3547 35.158 17.3334C35.78 16.8003 36.1354 16.0005 36.1354 15.1563C36.1354 13.8679 36.2243 13.779 37.8238 13.779C41.6447 13.779 44.1772 10.8911 44.8437 5.82604L45.1547 3.42682L47.6428 3.69341C49.0201 3.87112 51.1972 4.18213 52.4412 4.44872ZM30.4039 6.09262C30.1374 6.53692 29.5598 7.38109 29.071 8.00311C28.2269 9.06944 28.1824 9.06944 27.2938 8.22527C26.7607 7.78096 26.4941 7.2478 26.7163 7.02565C26.9828 6.75907 29.7819 5.60389 30.715 5.38174C30.7594 5.33731 30.6261 5.69275 30.4039 6.09262Z" fill="black"/>
</g>
<defs>
<clipPath id="clip0_847_38">
<rect width="85.3056" height="85.3056" fill="white" transform="translate(0.591309 0.894287)"/>
</clipPath>
</defs>
</svg>
