<svg width="86" height="86" viewBox="0 0 86 86" fill="none" xmlns="http://www.w3.org/2000/svg">
<path d="M42.6008 3.24689C34.6034 6.97901 31.0046 10.7111 27.4058 18.7085C25.4064 23.3737 23.6737 25.2397 20.0748 26.4394C17.409 27.5057 15.2764 28.8386 15.2764 29.6383C15.2764 30.438 16.2094 30.5713 17.6756 30.0382C23.807 27.5057 24.2068 27.639 25.0066 33.9036C27.1392 48.8321 37.0027 58.8288 51.9311 60.9615C58.4623 61.7612 58.8622 62.4276 56.0631 67.7592C49.6652 80.0219 33.6704 85.8867 20.8746 80.5551C3.14701 73.2241 -2.45117 49.8984 10.2114 36.4361C13.4103 32.9706 12.4773 30.7046 9.14506 33.5037C5.27965 36.7027 0.614502 48.2989 0.614502 54.6968C0.614502 61.228 4.47991 70.9582 9.01177 75.8899C13.4103 80.6884 24.3401 85.3535 31.2712 85.3535C38.2023 85.3535 49.132 80.6884 53.5306 75.8899C55.1301 74.1572 57.5293 70.1585 58.9955 66.9595C61.1281 62.2944 62.8609 60.5616 68.0592 58.1624C75.9233 54.4302 79.5222 50.6981 83.121 42.7007C86.7198 34.7033 86.5865 26.3061 82.7211 18.0421C78.989 10.0447 75.2569 6.44586 67.2595 2.84703C59.2621 -0.751798 50.8648 -0.618514 42.6008 3.24689ZM46.5995 13.3769C40.3349 19.6416 34.87 24.0401 33.2705 24.0401C31.2712 24.0401 33.2705 21.3743 41.2679 13.3769C47.5326 7.11231 52.9975 2.71374 54.5969 2.71374C56.5963 2.71374 54.5969 5.37954 46.5995 13.3769ZM64.5937 4.71309C64.5937 4.84638 59.662 9.9114 53.6639 15.7762C47.1327 22.1741 42.0677 26.1728 40.8681 25.7729C39.6685 25.2397 42.4676 21.5076 50.0651 13.9101C56.463 7.51218 61.6613 3.2469 62.7276 3.64677C63.7939 4.04664 64.5937 4.44651 64.5937 4.71309ZM45.9331 4.44651C45.9331 4.5798 41.9344 8.71179 37.136 13.3769C30.4715 20.0414 28.7387 21.1078 30.3382 18.0421C32.4708 13.7768 38.2023 8.04534 42.6008 5.64612C45.5332 4.04664 45.9331 3.91335 45.9331 4.44651ZM71.2582 7.91205C71.2582 8.31192 66.4597 13.5102 60.7283 19.2417C52.7309 27.1058 49.5319 29.505 47.7991 28.8386C45.7998 28.0388 47.3993 26.0395 56.5963 16.7092C63.1275 10.178 68.3258 5.9127 69.3921 6.31257C70.4584 6.71244 71.2582 7.37889 71.2582 7.91205ZM65.7933 23.507C56.9962 32.3041 54.3304 34.3035 52.9975 33.1039C51.398 31.9042 53.264 29.505 62.0612 20.5746C70.8583 11.7775 73.5241 9.7781 74.857 10.9777C76.4565 12.1773 74.5904 14.5765 65.7933 23.507ZM79.6554 16.5759C80.0553 17.6422 75.79 22.8405 69.2588 29.3717C59.9285 38.5687 57.9292 40.1682 57.1294 38.1689C56.463 36.4361 58.8622 33.2371 66.7263 25.2397C72.4578 19.5083 77.6561 14.7098 78.056 14.7098C78.5891 14.7098 79.2556 15.5096 79.6554 16.5759ZM82.3213 23.2404C82.7211 24.3067 78.4558 29.505 72.0579 35.9029C62.8609 45.0999 60.8616 46.5661 60.0618 44.5668C59.3954 42.834 61.6613 39.6351 69.5254 31.771C75.2569 26.0395 80.3219 21.3743 80.7218 21.3743C81.2549 21.3743 81.9214 22.1741 82.3213 23.2404ZM32.6041 27.1058C32.6041 27.3724 31.4045 28.7053 29.9383 30.0382C27.4058 32.4374 27.2725 32.3041 27.2725 29.6383C27.2725 27.639 28.0722 26.7059 29.9383 26.7059C31.4045 26.7059 32.6041 26.9725 32.6041 27.1058ZM40.6015 28.7053C40.6015 28.8386 38.069 31.5044 35.0033 34.57C31.0046 38.702 29.2718 39.6351 28.4721 38.4354C27.0059 36.1695 36.2029 26.7059 38.7354 27.639C39.8018 28.0388 40.6015 28.4387 40.6015 28.7053ZM72.991 44.3002C64.0605 53.3639 62.5943 54.4302 62.1945 51.8977C61.7946 49.7651 64.4604 46.2996 72.1912 38.4354C81.1216 29.3717 82.5878 28.3054 82.9877 30.8379C83.3876 32.9706 80.7218 36.4361 72.991 44.3002ZM47.266 31.9042C47.266 32.4374 43.9337 36.0362 39.935 40.0349C33.937 46.033 32.3375 46.966 31.2712 45.3665C30.3382 43.9003 31.6711 41.6344 36.8694 36.4361C40.7348 32.5707 44.4669 29.9049 45.3999 30.3048C46.4662 30.7046 47.266 31.3711 47.266 31.9042ZM45.1334 44.1669C39.002 50.2983 37.0027 51.6312 35.6698 50.4315C34.2036 49.2319 35.2699 47.4992 41.4012 41.2345C47.5326 35.1032 49.5319 33.7703 50.8648 34.9699C52.331 36.1695 51.2647 37.9023 45.1334 44.1669ZM55.6633 40.5681C56.0631 41.5011 53.3973 45.2332 49.5319 49.0986C44.3336 54.297 42.0677 55.6299 40.6015 54.6968C39.002 53.6305 39.935 52.031 45.9331 46.033C53.6639 38.1689 54.5969 37.6357 55.6633 40.5681ZM80.0553 43.6338C77.9227 47.899 72.0579 53.6305 67.6594 55.8964C65.9266 56.6962 64.5937 57.2293 64.5937 56.9628C64.5937 56.0297 79.922 40.4348 80.9883 40.1682C81.5215 40.1682 81.1216 41.6344 80.0553 43.6338ZM58.3291 47.2326C59.3954 50.0317 49.7985 58.8288 47.266 57.3626C45.6665 56.2963 46.1997 55.23 50.5982 50.6981C56.3297 44.8334 57.2627 44.4335 58.3291 47.2326ZM59.2621 55.3633C59.2621 58.0291 58.5956 58.6955 55.6633 58.6955H52.1977L55.2634 55.3633C56.9962 53.4972 58.5956 52.031 58.8622 52.031C59.1288 52.031 59.2621 53.4972 59.2621 55.3633Z" fill="black"/>
</svg>
