<svg width="28" height="45" viewBox="0 0 28 45" fill="none" xmlns="http://www.w3.org/2000/svg">
<path d="M14.663 34.0839H11.6417C11.6417 31.9148 12.0807 30.0813 12.9587 28.5836C13.8367 27.0858 14.8954 25.7689 16.135 24.6326C17.3745 23.4448 18.614 22.3086 19.8535 21.224C21.1446 20.0878 22.2034 18.8483 23.0297 17.5054C23.9077 16.1626 24.3467 14.5616 24.3467 12.7023C24.3984 9.8618 23.4687 7.58936 21.5578 5.88503C19.6469 4.1807 17.1937 3.32854 14.1982 3.32854C11.7708 3.32854 9.78246 3.87083 8.23307 4.9554C6.68368 5.98832 5.54746 7.38277 4.82441 9.13875C4.10137 10.8431 3.73984 12.7023 3.73984 14.7165H0.331186C0.227894 12.0309 0.666887 9.60357 1.64817 7.43442C2.68109 5.21363 4.23048 3.45765 6.29633 2.1665C8.41383 0.823694 11.022 0.152291 14.1207 0.152291C16.5998 0.152291 18.8722 0.642931 20.9381 1.62421C23.0039 2.60549 24.6566 4.02577 25.8961 5.88503C27.1356 7.69265 27.7554 9.88762 27.7554 12.4699C27.7554 14.6907 27.3164 16.55 26.4384 18.0477C25.5604 19.5455 24.4758 20.8625 23.1847 21.9987C21.9452 23.0832 20.6798 24.1678 19.3887 25.2524C18.0975 26.2853 16.9871 27.499 16.0575 28.8935C15.1795 30.2879 14.7147 32.0181 14.663 34.0839ZM13.2686 44.6972C12.339 44.6972 11.7192 44.439 11.4093 43.9225C11.1511 43.4061 11.022 42.7605 11.022 41.9858C11.022 41.3144 11.1511 40.7463 11.4093 40.2815C11.7192 39.765 12.339 39.5068 13.2686 39.5068C14.1466 39.5068 14.7405 39.765 15.0504 40.2815C15.3603 40.7463 15.5152 41.3144 15.5152 41.9858C15.5152 42.7605 15.3603 43.4061 15.0504 43.9225C14.7405 44.439 14.1466 44.6972 13.2686 44.6972Z" fill="#272727"/>
</svg>
