{
	"asset":{
		"generator":"Khronos glTF Blender I/O v3.6.27",
		"version":"2.0"
	},
	"scene":0,
	"scenes":[
		{
			"name":"Scene",
			"nodes":[
				0,
				1,
				2
			]
		}
	],
	"nodes":[
		{
			"mesh":0,
			"name":"Circle.001",
			"translation":[
				-2.53688645362854,
				0,
				0
			]
		},
		{
			"mesh":1,
			"name":"Circle.002",
			"translation":[
				-2.53688645362854,
				0,
				0
			]
		},
		{
			"mesh":2,
			"name":"Circle.003",
			"translation":[
				-2.53688645362854,
				0,
				0
			]
		}
	],
	"animations":[
		{
			"channels":[
				{
					"sampler":0,
					"target":{
						"node":0,
						"path":"translation"
					}
				},
				{
					"sampler":1,
					"target":{
						"node":0,
						"path":"rotation"
					}
				},
				{
					"sampler":2,
					"target":{
						"node":0,
						"path":"scale"
					}
				}
			],
			"name":"Circle.001Action",
			"samplers":[
				{
					"input":11,
					"interpolation":"STEP",
					"output":12
				},
				{
					"input":13,
					"interpolation":"LINEAR",
					"output":14
				},
				{
					"input":11,
					"interpolation":"STEP",
					"output":15
				}
			]
		},
		{
			"channels":[
				{
					"sampler":0,
					"target":{
						"node":1,
						"path":"translation"
					}
				},
				{
					"sampler":1,
					"target":{
						"node":1,
						"path":"rotation"
					}
				},
				{
					"sampler":2,
					"target":{
						"node":1,
						"path":"scale"
					}
				}
			],
			"name":"Circle.002Action",
			"samplers":[
				{
					"input":16,
					"interpolation":"STEP",
					"output":17
				},
				{
					"input":18,
					"interpolation":"LINEAR",
					"output":19
				},
				{
					"input":16,
					"interpolation":"STEP",
					"output":20
				}
			]
		},
		{
			"channels":[
				{
					"sampler":0,
					"target":{
						"node":2,
						"path":"translation"
					}
				},
				{
					"sampler":1,
					"target":{
						"node":2,
						"path":"rotation"
					}
				},
				{
					"sampler":2,
					"target":{
						"node":2,
						"path":"scale"
					}
				}
			],
			"name":"Circle.003Action",
			"samplers":[
				{
					"input":11,
					"interpolation":"STEP",
					"output":21
				},
				{
					"input":13,
					"interpolation":"LINEAR",
					"output":22
				},
				{
					"input":11,
					"interpolation":"STEP",
					"output":23
				}
			]
		}
	],
	"materials":[
		{
			"doubleSided":true,
			"name":"Material.001",
			"pbrMetallicRoughness":{
				"baseColorFactor":[
					0.8000000715255737,
					0.2466728240251541,
					0.01532177347689867,
					1
				],
				"metallicFactor":0,
				"roughnessFactor":0.5
			}
		},
		{
			"doubleSided":true,
			"name":"Material.003",
			"pbrMetallicRoughness":{
				"baseColorFactor":[
					0.8000000715255737,
					0.04093730449676514,
					0,
					1
				],
				"metallicFactor":0,
				"roughnessFactor":0.5
			}
		},
		{
			"doubleSided":true,
			"name":"Material.002",
			"pbrMetallicRoughness":{
				"baseColorFactor":[
					0.428690642118454,
					0.20863690972328186,
					0.05286065861582756,
					1
				],
				"metallicFactor":0,
				"roughnessFactor":0.5
			}
		}
	],
	"meshes":[
		{
			"name":"Circle.001",
			"primitives":[
				{
					"attributes":{
						"POSITION":0,
						"NORMAL":1,
						"TEXCOORD_0":2
					},
					"indices":3,
					"material":0
				}
			]
		},
		{
			"name":"Circle.003",
			"primitives":[
				{
					"attributes":{
						"POSITION":4,
						"NORMAL":5
					},
					"indices":6,
					"material":1
				}
			]
		},
		{
			"name":"Circle.004",
			"primitives":[
				{
					"attributes":{
						"POSITION":7,
						"NORMAL":8,
						"TEXCOORD_0":9
					},
					"indices":10,
					"material":2
				}
			]
		}
	],
	"accessors":[
		{
			"bufferView":0,
			"componentType":5126,
			"count":3520,
			"max":[
				0.7636098265647888,
				1.0654209852218628,
				1.0654208660125732
			],
			"min":[
				-0.36166173219680786,
				-1.0654207468032837,
				-1.0654208660125732
			],
			"type":"VEC3"
		},
		{
			"bufferView":1,
			"componentType":5126,
			"count":3520,
			"type":"VEC3"
		},
		{
			"bufferView":2,
			"componentType":5126,
			"count":3520,
			"type":"VEC2"
		},
		{
			"bufferView":3,
			"componentType":5123,
			"count":6018,
			"type":"SCALAR"
		},
		{
			"bufferView":4,
			"componentType":5126,
			"count":1524,
			"max":[
				5.441831111907959,
				3.994394063949585,
				0.07120604813098907
			],
			"min":[
				-0.3175787925720215,
				1.0293262004852295,
				-0.11036135256290436
			],
			"type":"VEC3"
		},
		{
			"bufferView":5,
			"componentType":5126,
			"count":1524,
			"type":"VEC3"
		},
		{
			"bufferView":6,
			"componentType":5123,
			"count":3648,
			"type":"SCALAR"
		},
		{
			"bufferView":7,
			"componentType":5126,
			"count":3522,
			"max":[
				5.471818447113037,
				1.066375732421875,
				1.0654208660125732
			],
			"min":[
				4.346546649932861,
				-1.0644659996032715,
				-1.0654208660125732
			],
			"type":"VEC3"
		},
		{
			"bufferView":8,
			"componentType":5126,
			"count":3522,
			"type":"VEC3"
		},
		{
			"bufferView":9,
			"componentType":5126,
			"count":3522,
			"type":"VEC2"
		},
		{
			"bufferView":10,
			"componentType":5123,
			"count":6018,
			"type":"SCALAR"
		},
		{
			"bufferView":11,
			"componentType":5126,
			"count":2,
			"max":[
				4.166666666666667
			],
			"min":[
				2.0833333333333335
			],
			"type":"SCALAR"
		},
		{
			"bufferView":12,
			"componentType":5126,
			"count":2,
			"type":"VEC3"
		},
		{
			"bufferView":13,
			"componentType":5126,
			"count":51,
			"max":[
				4.166666666666667
			],
			"min":[
				2.0833333333333335
			],
			"type":"SCALAR"
		},
		{
			"bufferView":14,
			"componentType":5126,
			"count":51,
			"type":"VEC4"
		},
		{
			"bufferView":15,
			"componentType":5126,
			"count":2,
			"type":"VEC3"
		},
		{
			"bufferView":16,
			"componentType":5126,
			"count":2,
			"max":[
				2.0833333333333335
			],
			"min":[
				0
			],
			"type":"SCALAR"
		},
		{
			"bufferView":17,
			"componentType":5126,
			"count":2,
			"type":"VEC3"
		},
		{
			"bufferView":18,
			"componentType":5126,
			"count":51,
			"max":[
				2.0833333333333335
			],
			"min":[
				0
			],
			"type":"SCALAR"
		},
		{
			"bufferView":19,
			"componentType":5126,
			"count":51,
			"type":"VEC4"
		},
		{
			"bufferView":20,
			"componentType":5126,
			"count":2,
			"type":"VEC3"
		},
		{
			"bufferView":21,
			"componentType":5126,
			"count":2,
			"type":"VEC3"
		},
		{
			"bufferView":22,
			"componentType":5126,
			"count":51,
			"type":"VEC4"
		},
		{
			"bufferView":23,
			"componentType":5126,
			"count":2,
			"type":"VEC3"
		}
	],
	"bufferViews":[
		{
			"buffer":0,
			"byteLength":42240,
			"byteOffset":0,
			"target":34962
		},
		{
			"buffer":0,
			"byteLength":42240,
			"byteOffset":42240,
			"target":34962
		},
		{
			"buffer":0,
			"byteLength":28160,
			"byteOffset":84480,
			"target":34962
		},
		{
			"buffer":0,
			"byteLength":12036,
			"byteOffset":112640,
			"target":34963
		},
		{
			"buffer":0,
			"byteLength":18288,
			"byteOffset":124676,
			"target":34962
		},
		{
			"buffer":0,
			"byteLength":18288,
			"byteOffset":142964,
			"target":34962
		},
		{
			"buffer":0,
			"byteLength":7296,
			"byteOffset":161252,
			"target":34963
		},
		{
			"buffer":0,
			"byteLength":42264,
			"byteOffset":168548,
			"target":34962
		},
		{
			"buffer":0,
			"byteLength":42264,
			"byteOffset":210812,
			"target":34962
		},
		{
			"buffer":0,
			"byteLength":28176,
			"byteOffset":253076,
			"target":34962
		},
		{
			"buffer":0,
			"byteLength":12036,
			"byteOffset":281252,
			"target":34963
		},
		{
			"buffer":0,
			"byteLength":8,
			"byteOffset":293288
		},
		{
			"buffer":0,
			"byteLength":24,
			"byteOffset":293296
		},
		{
			"buffer":0,
			"byteLength":204,
			"byteOffset":293320
		},
		{
			"buffer":0,
			"byteLength":816,
			"byteOffset":293524
		},
		{
			"buffer":0,
			"byteLength":24,
			"byteOffset":294340
		},
		{
			"buffer":0,
			"byteLength":8,
			"byteOffset":294364
		},
		{
			"buffer":0,
			"byteLength":24,
			"byteOffset":294372
		},
		{
			"buffer":0,
			"byteLength":204,
			"byteOffset":294396
		},
		{
			"buffer":0,
			"byteLength":816,
			"byteOffset":294600
		},
		{
			"buffer":0,
			"byteLength":24,
			"byteOffset":295416
		},
		{
			"buffer":0,
			"byteLength":24,
			"byteOffset":295440
		},
		{
			"buffer":0,
			"byteLength":816,
			"byteOffset":295464
		},
		{
			"buffer":0,
			"byteLength":24,
			"byteOffset":296280
		}
	],
	"buffers":[
		{
			"byteLength":296304,
			"uri":"data:application/octet-stream;base64,"
		}
	]
}
