{
	"asset":{
		"generator":"Khronos glTF Blender I/O v3.6.27",
		"version":"2.0"
	},
	"scene":0,
	"scenes":[
		{
			"name":"Scene",
			"nodes":[
				0,
				1,
				2
			]
		}
	],
	"nodes":[
		{
			"mesh":0,
			"name":"Circle.001",
			"rotation":[
				0,
				0,
				-0.7071066498756409,
				0.70710688829422
			]
		},
		{
			"mesh":1,
			"name":"Circle.002"
		},
		{
			"mesh":2,
			"name":"Circle.003",
			"rotation":[
				0.70710688829422,
				0.7071066498756409,
				0,
				4.750302551315144e-08
			],
			"scale":[
				-1,
				-1,
				-1
			],
			"translation":[
				5.110156536102295,
				0.0009547987137921154,
				0
			]
		}
	],
	"materials":[
		{
			"doubleSided":true,
			"name":"Material.001",
			"pbrMetallicRoughness":{
				"baseColorFactor":[
					0.8000000715255737,
					0.2466728240251541,
					0.01532177347689867,
					1
				],
				"metallicFactor":0,
				"roughnessFactor":0.5
			}
		},
		{
			"doubleSided":true,
			"name":"Material.003",
			"pbrMetallicRoughness":{
				"baseColorFactor":[
					0.8000000715255737,
					0.04093730449676514,
					0,
					1
				],
				"metallicFactor":0,
				"roughnessFactor":0.5
			}
		},
		{
			"doubleSided":true,
			"name":"Material.002",
			"pbrMetallicRoughness":{
				"baseColorFactor":[
					0.428690642118454,
					0.20863690972328186,
					0.05286065861582756,
					1
				],
				"metallicFactor":0,
				"roughnessFactor":0.5
			}
		}
	],
	"meshes":[
		{
			"name":"Circle.001",
			"primitives":[
				{
					"attributes":{
						"POSITION":0,
						"NORMAL":1,
						"TEXCOORD_0":2
					},
					"indices":3,
					"material":0
				}
			]
		},
		{
			"name":"Circle.003",
			"primitives":[
				{
					"attributes":{
						"POSITION":4,
						"NORMAL":5
					},
					"indices":6,
					"material":1
				}
			]
		},
		{
			"name":"Circle.004",
			"primitives":[
				{
					"attributes":{
						"POSITION":7,
						"NORMAL":8,
						"TEXCOORD_0":9
					},
					"indices":3,
					"material":2
				}
			]
		}
	],
	"accessors":[
		{
			"bufferView":0,
			"componentType":5126,
			"count":3503,
			"max":[
				1.0654208660125732,
				0.7636096477508545,
				1.0654209852218628
			],
			"min":[
				-1.0654209852218628,
				-0.3616617023944855,
				-1.0654208660125732
			],
			"type":"VEC3"
		},
		{
			"bufferView":1,
			"componentType":5126,
			"count":3503,
			"type":"VEC3"
		},
		{
			"bufferView":2,
			"componentType":5126,
			"count":3503,
			"type":"VEC2"
		},
		{
			"bufferView":3,
			"componentType":5123,
			"count":6018,
			"type":"SCALAR"
		},
		{
			"bufferView":4,
			"componentType":5126,
			"count":1524,
			"max":[
				5.441831111907959,
				3.994394063949585,
				0.07120604813098907
			],
			"min":[
				-0.3175787329673767,
				1.02932608127594,
				-0.11036135256290436
			],
			"type":"VEC3"
		},
		{
			"bufferView":5,
			"componentType":5126,
			"count":1524,
			"type":"VEC3"
		},
		{
			"bufferView":6,
			"componentType":5123,
			"count":3648,
			"type":"SCALAR"
		},
		{
			"bufferView":7,
			"componentType":5126,
			"count":3503,
			"max":[
				1.0654208660125732,
				0.7636096477508545,
				1.0654209852218628
			],
			"min":[
				-1.0654209852218628,
				-0.3616617023944855,
				-1.0654208660125732
			],
			"type":"VEC3"
		},
		{
			"bufferView":8,
			"componentType":5126,
			"count":3503,
			"type":"VEC3"
		},
		{
			"bufferView":9,
			"componentType":5126,
			"count":3503,
			"type":"VEC2"
		}
	],
	"bufferViews":[
		{
			"buffer":0,
			"byteLength":42036,
			"byteOffset":0,
			"target":34962
		},
		{
			"buffer":0,
			"byteLength":42036,
			"byteOffset":42036,
			"target":34962
		},
		{
			"buffer":0,
			"byteLength":28024,
			"byteOffset":84072,
			"target":34962
		},
		{
			"buffer":0,
			"byteLength":12036,
			"byteOffset":112096,
			"target":34963
		},
		{
			"buffer":0,
			"byteLength":18288,
			"byteOffset":124132,
			"target":34962
		},
		{
			"buffer":0,
			"byteLength":18288,
			"byteOffset":142420,
			"target":34962
		},
		{
			"buffer":0,
			"byteLength":7296,
			"byteOffset":160708,
			"target":34963
		},
		{
			"buffer":0,
			"byteLength":42036,
			"byteOffset":168004,
			"target":34962
		},
		{
			"buffer":0,
			"byteLength":42036,
			"byteOffset":210040,
			"target":34962
		},
		{
			"buffer":0,
			"byteLength":28024,
			"byteOffset":252076,
			"target":34962
		}
	],
	"buffers":[
		{
			"byteLength":280100,
			"uri":"data:application/octet-stream;base64,"
		}
	]
}
